<svg id="Layer_1" enable-background="new 0 0 512 512" height="512" viewBox="0 0 512 512" width="512" xmlns="http://www.w3.org/2000/svg"><g><g><g><g id="XMLID_361_"><g id="XMLID_362_"><g id="XMLID_363_"><g id="XMLID_364_"><g id="XMLID_365_"><g id="XMLID_366_"><g id="XMLID_367_"><g id="XMLID_368_"><g id="XMLID_369_"><g id="XMLID_370_"><g id="XMLID_371_"><g id="XMLID_372_"><g id="XMLID_373_"><g id="XMLID_374_"><circle id="XMLID_375_" cx="256" cy="256" fill="#71f4c3" r="256"/></g></g></g></g></g></g></g></g></g></g></g></g></g></g></g></g><path d="m439.45 97.797s-76.631 24.635-80.95 44.953c-32.97-12.893-146.517-14.081-174.969-6.906l-43.643-43.973-69.736 70.727 49.915 50.085c-15.719 50.271 47.12 209.337 47.12 209.337l89.819 89.967c140.921-.543 254.994-114.938 254.994-255.987 0-39.611-9.001-77.119-25.062-110.596z" fill="#40c693"/><g><g><path d="m160.745 143.149s-8.892-79.478-63.921-60.809-58.763 104.015 35.651 97.08z" fill="#7c5149"/><path d="m351.255 143.149s8.892-79.478 63.921-60.809 58.763 104.015-35.651 97.08z" fill="#633a35"/></g><path d="m410.209 194c-23.196-74.184-109.457-72.273-154.413-72.273s-131.216-1.911-154.413 72.273c-21.5 68.76 18.227 264.147 156.993 264.147s173.333-195.387 151.833-264.147z" fill="#996e6b"/><path d="m258.38 458.15c-.8 0-1.59-.01-2.38-.02v-336.4c45.01-.01 131.04-1.8 154.21 72.27 21.5 68.76-13.07 264.15-151.83 264.15z" fill="#7f5752"/><g><ellipse cx="189.055" cy="215.111" fill="#7c5149" rx="22.139" ry="22.139" transform="matrix(.294 -.956 .956 .294 -72.117 332.6)"/><ellipse cx="322.945" cy="215.111" fill="#633a35" rx="22.139" ry="22.139" transform="matrix(.77 -.638 .638 .77 -62.956 255.69)"/></g><path d="m256 284.246c-44.806 0-78.082 23.931-64.854 74.453 11.298 43.155 42.421 54.776 64.854 54.776s53.556-11.621 64.854-54.776c13.228-50.522-20.048-74.453-64.854-74.453z" fill="#ffcb97"/><path d="m320.85 358.7c-11.29 43.15-42.42 54.78-64.85 54.78v-129.23c13.78 0 26.47 2.26 37.05 6.87 23.82 10.36 36.96 32.6 27.8 67.58z" fill="#f9ad6e"/><path d="m256 269.125c-16.834 0-49.408 3.05-32.946 32.163 16.352 28.922 32.946 24.683 32.946 24.683s16.594 4.239 32.946-24.683c16.462-29.113-16.112-32.163-32.946-32.163z" fill="#7c5149"/><path d="m293.05 291.12c-.62 2.97-1.94 6.35-4.1 10.17-16.36 28.92-32.95 24.68-32.95 24.68v-56.84c14.62 0 41.13 2.3 37.05 21.99z" fill="#633a35"/></g></g></svg>